<svg width="268" height="79" viewBox="0 0 268 79" fill="none" xmlns="http://www.w3.org/2000/svg">
<circle cx="39" cy="39.5" r="36" stroke="white" stroke-width="6"/>
<circle cx="46" cy="33.5" r="27" stroke="white" stroke-width="6"/>
<circle cx="46.5" cy="33" r="13.5" stroke="white" stroke-width="6"/>
<path d="M93.12 53.5V25.5H96.32L106.6 45.7L116.92 25.5H120.16V53.5H117.36V30.62L107.68 49.58H105.6L95.92 30.7V53.5H93.12ZM132.561 53.98C130.935 53.98 129.575 53.6867 128.481 53.1C127.415 52.5133 126.615 51.7533 126.081 50.82C125.575 49.8867 125.321 48.86 125.321 47.74C125.321 46.3533 125.668 45.18 126.361 44.22C127.081 43.26 128.081 42.54 129.361 42.06C130.641 41.58 132.135 41.34 133.841 41.34H139.281C139.281 40.0333 139.081 38.9267 138.681 38.02C138.281 37.1133 137.695 36.4333 136.921 35.98C136.148 35.5 135.175 35.26 134.001 35.26C132.641 35.26 131.468 35.6067 130.481 36.3C129.495 36.9933 128.881 38.0067 128.641 39.34H125.721C125.881 37.9267 126.361 36.74 127.161 35.78C127.988 34.82 129.001 34.1 130.201 33.62C131.401 33.1133 132.668 32.86 134.001 32.86C135.868 32.86 137.388 33.22 138.561 33.94C139.735 34.6333 140.615 35.5933 141.201 36.82C141.788 38.0467 142.081 39.46 142.081 41.06V53.5H139.521L139.361 49.82C139.121 50.38 138.788 50.9133 138.361 51.42C137.961 51.9267 137.481 52.3667 136.921 52.74C136.388 53.1133 135.761 53.4067 135.041 53.62C134.321 53.86 133.495 53.98 132.561 53.98ZM132.881 51.54C133.868 51.54 134.748 51.34 135.521 50.94C136.321 50.5133 137.001 49.9667 137.561 49.3C138.121 48.6333 138.548 47.8867 138.841 47.06C139.135 46.2067 139.281 45.3267 139.281 44.42V43.7H134.041C132.628 43.7 131.495 43.8733 130.641 44.22C129.788 44.5667 129.175 45.0333 128.801 45.62C128.428 46.2067 128.241 46.8867 128.241 47.66C128.241 48.4333 128.415 49.1133 128.761 49.7C129.108 50.26 129.628 50.7133 130.321 51.06C131.041 51.38 131.895 51.54 132.881 51.54ZM154.771 53.98C153.171 53.98 151.758 53.7133 150.531 53.18C149.331 52.6467 148.358 51.8867 147.611 50.9C146.891 49.8867 146.451 48.6867 146.291 47.3H149.171C149.331 48.0733 149.638 48.78 150.091 49.42C150.571 50.06 151.211 50.58 152.011 50.98C152.811 51.3533 153.758 51.54 154.851 51.54C155.865 51.54 156.691 51.3933 157.331 51.1C157.998 50.78 158.491 50.3667 158.811 49.86C159.158 49.3267 159.331 48.74 159.331 48.1C159.331 47.22 159.118 46.54 158.691 46.06C158.291 45.5533 157.705 45.18 156.931 44.94C156.158 44.7 155.225 44.4733 154.131 44.26C153.225 44.1 152.358 43.8867 151.531 43.62C150.705 43.3533 149.958 43.0067 149.291 42.58C148.651 42.1533 148.145 41.62 147.771 40.98C147.398 40.3133 147.211 39.54 147.211 38.66C147.211 37.5133 147.491 36.5133 148.051 35.66C148.638 34.78 149.465 34.1 150.531 33.62C151.598 33.1133 152.851 32.86 154.291 32.86C156.345 32.86 158.025 33.38 159.331 34.42C160.638 35.4333 161.398 36.9267 161.611 38.9H158.811C158.705 37.8067 158.251 36.94 157.451 36.3C156.651 35.66 155.571 35.34 154.211 35.34C152.878 35.34 151.851 35.62 151.131 36.18C150.438 36.7133 150.091 37.4467 150.091 38.38C150.091 38.9667 150.278 39.4733 150.651 39.9C151.025 40.3267 151.571 40.7 152.291 41.02C153.038 41.3133 153.945 41.5667 155.011 41.78C156.291 42.02 157.465 42.34 158.531 42.74C159.625 43.1133 160.505 43.7 161.171 44.5C161.865 45.2733 162.211 46.38 162.211 47.82C162.238 49.02 161.945 50.0867 161.331 51.02C160.718 51.9533 159.851 52.6867 158.731 53.22C157.611 53.7267 156.291 53.98 154.771 53.98ZM173.839 53.5C172.693 53.5 171.706 53.3267 170.879 52.98C170.053 52.6067 169.413 52.0067 168.959 51.18C168.533 50.3267 168.319 49.1667 168.319 47.7V35.74H164.799V33.34H168.319L168.719 28.66H171.119V33.38H177.159V35.74H171.119V47.7C171.119 49.0333 171.386 49.94 171.919 50.42C172.453 50.8733 173.399 51.1 174.759 51.1H176.839V53.5H173.839ZM187.952 53.98C186.325 53.98 184.965 53.6867 183.872 53.1C182.805 52.5133 182.005 51.7533 181.472 50.82C180.965 49.8867 180.712 48.86 180.712 47.74C180.712 46.3533 181.059 45.18 181.752 44.22C182.472 43.26 183.472 42.54 184.752 42.06C186.032 41.58 187.525 41.34 189.232 41.34H194.672C194.672 40.0333 194.472 38.9267 194.072 38.02C193.672 37.1133 193.085 36.4333 192.312 35.98C191.539 35.5 190.565 35.26 189.392 35.26C188.032 35.26 186.859 35.6067 185.872 36.3C184.885 36.9933 184.272 38.0067 184.032 39.34H181.112C181.272 37.9267 181.752 36.74 182.552 35.78C183.379 34.82 184.392 34.1 185.592 33.62C186.792 33.1133 188.059 32.86 189.392 32.86C191.259 32.86 192.779 33.22 193.952 33.94C195.125 34.6333 196.005 35.5933 196.592 36.82C197.179 38.0467 197.472 39.46 197.472 41.06V53.5H194.912L194.752 49.82C194.512 50.38 194.179 50.9133 193.752 51.42C193.352 51.9267 192.872 52.3667 192.312 52.74C191.779 53.1133 191.152 53.4067 190.432 53.62C189.712 53.86 188.885 53.98 187.952 53.98ZM188.272 51.54C189.259 51.54 190.139 51.34 190.912 50.94C191.712 50.5133 192.392 49.9667 192.952 49.3C193.512 48.6333 193.939 47.8867 194.232 47.06C194.525 46.2067 194.672 45.3267 194.672 44.42V43.7H189.432C188.019 43.7 186.885 43.8733 186.032 44.22C185.179 44.5667 184.565 45.0333 184.192 45.62C183.819 46.2067 183.632 46.8867 183.632 47.66C183.632 48.4333 183.805 49.1133 184.152 49.7C184.499 50.26 185.019 50.7133 185.712 51.06C186.432 51.38 187.285 51.54 188.272 51.54ZM202.762 62.3V33.34H205.322L205.562 36.98C205.989 36.26 206.549 35.5933 207.242 34.98C207.935 34.34 208.762 33.8333 209.722 33.46C210.709 33.06 211.829 32.86 213.082 32.86C215.029 32.86 216.722 33.3267 218.162 34.26C219.629 35.1933 220.762 36.46 221.562 38.06C222.362 39.6333 222.762 41.4333 222.762 43.46C222.762 45.4867 222.349 47.3 221.522 48.9C220.722 50.4733 219.602 51.7133 218.162 52.62C216.722 53.5267 215.015 53.98 213.042 53.98C211.335 53.98 209.829 53.62 208.522 52.9C207.242 52.1533 206.255 51.1133 205.562 49.78V62.3H202.762ZM212.842 51.54C214.229 51.54 215.442 51.2067 216.482 50.54C217.549 49.8733 218.389 48.94 219.002 47.74C219.615 46.5133 219.922 45.0733 219.922 43.42C219.922 41.7933 219.615 40.3667 219.002 39.14C218.389 37.9133 217.549 36.9667 216.482 36.3C215.442 35.6333 214.229 35.3 212.842 35.3C211.455 35.3 210.215 35.6333 209.122 36.3C208.055 36.9667 207.215 37.9133 206.602 39.14C206.015 40.34 205.722 41.7667 205.722 43.42C205.722 45.0467 206.015 46.4733 206.602 47.7C207.215 48.9267 208.055 49.8733 209.122 50.54C210.215 51.2067 211.455 51.54 212.842 51.54ZM234.007 53.98C232.38 53.98 231.02 53.6867 229.927 53.1C228.86 52.5133 228.06 51.7533 227.527 50.82C227.02 49.8867 226.767 48.86 226.767 47.74C226.767 46.3533 227.113 45.18 227.807 44.22C228.527 43.26 229.527 42.54 230.807 42.06C232.087 41.58 233.58 41.34 235.287 41.34H240.727C240.727 40.0333 240.527 38.9267 240.127 38.02C239.727 37.1133 239.14 36.4333 238.367 35.98C237.593 35.5 236.62 35.26 235.447 35.26C234.087 35.26 232.913 35.6067 231.927 36.3C230.94 36.9933 230.327 38.0067 230.087 39.34H227.167C227.327 37.9267 227.807 36.74 228.607 35.78C229.433 34.82 230.447 34.1 231.647 33.62C232.847 33.1133 234.113 32.86 235.447 32.86C237.313 32.86 238.833 33.22 240.007 33.94C241.18 34.6333 242.06 35.5933 242.647 36.82C243.233 38.0467 243.527 39.46 243.527 41.06V53.5H240.967L240.807 49.82C240.567 50.38 240.233 50.9133 239.807 51.42C239.407 51.9267 238.927 52.3667 238.367 52.74C237.833 53.1133 237.207 53.4067 236.487 53.62C235.767 53.86 234.94 53.98 234.007 53.98ZM234.327 51.54C235.313 51.54 236.193 51.34 236.967 50.94C237.767 50.5133 238.447 49.9667 239.007 49.3C239.567 48.6333 239.993 47.8867 240.287 47.06C240.58 46.2067 240.727 45.3267 240.727 44.42V43.7H235.487C234.073 43.7 232.94 43.8733 232.087 44.22C231.233 44.5667 230.62 45.0333 230.247 45.62C229.873 46.2067 229.687 46.8867 229.687 47.66C229.687 48.4333 229.86 49.1133 230.207 49.7C230.553 50.26 231.073 50.7133 231.767 51.06C232.487 51.38 233.34 51.54 234.327 51.54ZM250.35 62.3L255.31 51.26H254.23L246.27 33.34H249.31L256.19 49.34L263.43 33.34H266.31L253.27 62.3H250.35Z" fill="white"/>
</svg>
